<?xml version="1.0" encoding="utf-8"?>
<!-- Designed by Vexels.com - 2019 All Rights Reserved - https://vexels.com/terms-and-conditions/  -->
<svg version="1.1" id="Capa_1" xmlns="http://www.w3.org/2000/svg" xmlns:xlink="http://www.w3.org/1999/xlink" x="0px" y="0px"
	 viewBox="0 0 1200 1200" enable-background="new 0 0 1200 1200" xml:space="preserve">
<g>
	<path d="M1066.976,707.852c5.891,5.887,13.612,8.832,21.328,8.832s15.438-2.945,21.328-8.832c11.777-11.782,11.777-30.875,0-42.657
		l-35.034-35.034h45.241c16.659,0,30.161-13.502,30.161-30.161s-13.502-30.161-30.161-30.161h-45.247l35.04-35.042
		c11.777-11.778,11.777-30.875-0.004-42.653c-11.774-11.774-30.871-11.778-42.653,0.004l-77.687,77.691h-27.107l35.04-35.042
		c11.778-11.778,11.778-30.875-0.004-42.653c-11.774-11.774-30.871-11.778-42.653,0.004l-77.687,77.691h-159.45
		c-2.947-11.471-7.543-22.284-13.507-32.187l94.696-94.696h107.824c16.659,0,30.161-13.502,30.161-30.161
		c0-16.659-13.502-30.161-30.161-30.161h-47.503l19.165-19.165h107.824c16.659,0,30.161-13.502,30.161-30.161
		c0-16.659-13.502-30.161-30.161-30.161h-47.503l50.767-50.767c11.778-11.782,11.778-30.875,0-42.657
		c-11.782-11.774-30.875-11.774-42.657,0l-52.813,52.813v-51.595c0-16.659-13.502-30.161-30.161-30.161
		c-16.659,0-30.161,13.502-30.161,30.161V322.86l-19.165,19.165v-51.591c0-16.659-13.502-30.161-30.161-30.161
		s-30.161,13.502-30.161,30.161v111.913l-92.942,92.942c-9.528-5.57-19.865-9.902-30.811-12.715V341.671l77.691-77.688
		c11.781-11.778,11.781-30.875,0.004-42.653c-11.778-11.782-30.875-11.778-42.653-0.004l-35.042,35.041V229.26l77.691-77.688
		c11.781-11.778,11.781-30.875,0.004-42.653s-30.875-11.782-42.653-0.004l-35.042,35.041V80.161C630.161,63.502,616.659,50,600,50
		s-30.161,13.502-30.161,30.161v63.789l-35.034-35.034c-11.781-11.774-30.875-11.774-42.657,0
		c-11.778,11.782-11.778,30.875,0,42.657l77.691,77.691v27.097l-35.034-35.034c-11.781-11.774-30.875-11.774-42.657,0
		c-11.778,11.781-11.778,30.875,0,42.657l77.691,77.691v140.898c-12.28,3.156-23.799,8.216-34.26,14.807l-95.529-95.529V290.433
		c0-16.659-13.502-30.161-30.161-30.161s-30.161,13.502-30.161,30.161v51.096l-19.165-19.165V210.943
		c0-16.659-13.502-30.161-30.161-30.161s-30.161,13.502-30.161,30.161v51.1l-52.318-52.318c-11.782-11.774-30.875-11.774-42.657,0
		c-11.778,11.782-11.778,30.875,0,42.657l50.766,50.767h-47.998c-16.659,0-30.161,13.502-30.161,30.161
		c0,16.659,13.502,30.161,30.161,30.161h108.319l19.165,19.165h-47.998c-16.659,0-30.161,13.502-30.161,30.161
		c0,16.659,13.502,30.161,30.161,30.161h108.319l98.215,98.215c-4.978,8.93-8.877,18.539-11.481,28.668H327.788l-77.695-77.695
		c-11.782-11.774-30.875-11.774-42.657,0c-11.778,11.782-11.778,30.875,0,42.657l35.038,35.038h-27.097l-77.695-77.695
		c-11.782-11.774-30.875-11.774-42.657,0c-11.778,11.782-11.778,30.875,0,42.657l35.038,35.038H80.161
		C63.502,569.839,50,583.341,50,600s13.502,30.161,30.161,30.161h49.904l-35.036,35.034c-11.782,11.778-11.782,30.875-0.004,42.653
		c5.891,5.891,13.608,8.836,21.328,8.836c7.717,0,15.438-2.945,21.325-8.832l77.695-77.691h27.103l-35.036,35.034
		c-11.782,11.778-11.782,30.875-0.004,42.653c5.891,5.891,13.608,8.836,21.328,8.836c7.717,0,15.438-2.945,21.325-8.832
		l77.695-77.691h154.791c2.311,8.99,5.655,17.564,9.853,25.627l-95.036,95.036h-109.87c-16.659,0-30.161,13.502-30.161,30.161
		s13.502,30.161,30.161,30.161h49.549l-19.165,19.165h-109.87c-16.659,0-30.161,13.502-30.161,30.161s13.502,30.161,30.161,30.161
		h49.549l-56.339,56.339c-11.778,11.781-11.778,30.875,0,42.657c5.891,5.887,13.612,8.832,21.328,8.832
		c7.717,0,15.438-2.945,21.328-8.832l56.339-56.339v49.549c0,16.659,13.502,30.161,30.161,30.161s30.161-13.502,30.161-30.161
		v-109.87l19.165-19.165v49.549c0,16.659,13.502,30.161,30.161,30.161s30.161-13.502,30.161-30.161V793.48l92.687-92.687
		c11.198,7.497,23.702,13.187,37.102,16.631v140.902l-77.691,77.695c-11.778,11.778-11.778,30.875,0.004,42.653
		c5.887,5.887,13.608,8.832,21.325,8.832c7.717,0,15.438-2.945,21.328-8.836l35.034-35.036v27.103l-77.691,77.695
		c-11.778,11.778-11.778,30.875,0.004,42.653c5.887,5.887,13.608,8.832,21.325,8.832c7.717,0,15.438-2.945,21.328-8.836
		l35.034-35.036v63.794c0,16.659,13.502,30.161,30.161,30.161s30.161-13.502,30.161-30.161v-63.793l35.038,35.038
		c5.891,5.887,13.612,8.832,21.328,8.832c7.717,0,15.438-2.945,21.328-8.832c11.778-11.781,11.778-30.875,0-42.657l-77.695-77.695
		v-27.097l35.038,35.038c5.891,5.887,13.612,8.832,21.328,8.832c7.717,0,15.438-2.945,21.328-8.832
		c11.778-11.781,11.778-30.875,0-42.657l-77.695-77.695V717.424c10.129-2.603,19.738-6.502,28.668-11.481l87.042,87.042V903.35
		c0,16.659,13.502,30.161,30.161,30.161s30.161-13.502,30.161-30.161v-50.044l19.165,19.165v110.365
		c0,16.659,13.502,30.161,30.161,30.161s30.161-13.502,30.161-30.161v-50.044l60.855,60.855c5.891,5.887,13.612,8.832,21.328,8.832
		c7.717,0,15.438-2.945,21.328-8.832c11.778-11.782,11.778-30.875,0-42.657L928.83,890.63h49.054
		c16.659,0,30.161-13.502,30.161-30.161s-13.502-30.161-30.161-30.161H868.508l-19.165-19.165h49.054
		c16.659,0,30.161-13.502,30.161-30.161s-13.502-30.161-30.161-30.161H789.023L702.62,664.42
		c6.592-10.461,11.651-21.979,14.807-34.26h159.446l77.691,77.691c5.891,5.887,13.612,8.832,21.328,8.832
		c7.717,0,15.438-2.945,21.328-8.832c11.778-11.782,11.778-30.875,0-42.657l-35.034-35.034h27.097L1066.976,707.852z"/>
	<path d="M133.935,811.882c-0.067-0.473-0.13-0.946-0.215-1.413c-0.129-0.711-0.285-1.409-0.455-2.104
		c-0.055-0.221-0.111-0.442-0.171-0.662c-0.215-0.812-0.453-1.614-0.725-2.402c-0.001-0.004-0.002-0.008-0.003-0.011
		c0,0,0,0,0,0.001c-4.738-13.741-17.75-23.628-33.101-23.628c-15.35,0-28.362,9.887-33.1,23.628c0,0,0-0.001,0-0.001
		c-0.001,0.003-0.002,0.007-0.003,0.011c-0.272,0.788-0.51,1.59-0.726,2.402c-0.059,0.22-0.115,0.44-0.17,0.662
		c-0.17,0.695-0.327,1.394-0.455,2.104c-0.086,0.466-0.148,0.94-0.216,1.413c-0.073,0.528-0.157,1.051-0.206,1.586
		c-0.101,1.065-0.163,2.142-0.163,3.234c0,10.251,4.43,19.446,11.447,25.853c1.262,1.153,2.581,2.242,4.001,3.202
		c0.933,0.63,1.897,1.215,2.889,1.755c4.965,2.697,10.654,4.229,16.701,4.229l0,0l0,0c8.162,0,15.652-2.814,21.608-7.493
		c0.303-0.238,0.612-0.467,0.907-0.715c7.651-6.428,12.525-16.057,12.525-26.832c0-1.092-0.063-2.169-0.164-3.234
		C134.093,812.933,134.009,812.41,133.935,811.882z"/>
	<path d="M850.936,1083.653c-0.067-0.472-0.13-0.946-0.215-1.413c-0.128-0.711-0.285-1.409-0.455-2.104
		c-0.055-0.221-0.111-0.441-0.171-0.661c-0.215-0.813-0.453-1.614-0.725-2.402c-0.001-0.004-0.002-0.008-0.003-0.012
		c0,0-0.001,0.001-0.001,0.001c-4.738-13.741-17.75-23.627-33.1-23.627c-15.35,0-28.362,9.887-33.1,23.627c0,0,0,0,0-0.001
		c-0.001,0.004-0.002,0.007-0.003,0.011c-0.272,0.788-0.51,1.59-0.726,2.403c-0.059,0.22-0.115,0.44-0.17,0.661
		c-0.17,0.696-0.327,1.394-0.455,2.104c-0.086,0.466-0.148,0.941-0.216,1.413c-0.073,0.528-0.157,1.051-0.206,1.586
		c-0.101,1.065-0.163,2.141-0.163,3.234c0,6.047,1.532,11.737,4.229,16.702c0.116,0.214,0.257,0.41,0.378,0.621
		c1.557,2.73,3.448,5.246,5.656,7.453c6.34,6.341,15.1,10.263,24.776,10.263l0,0l0,0c19.352,0,35.04-15.688,35.04-35.039
		c0-1.093-0.063-2.169-0.164-3.234C851.094,1084.704,851.01,1084.181,850.936,1083.653z"/>
	<path d="M355.997,123.668c0.39,1.053,0.826,2.079,1.312,3.082c0.538,1.111,1.128,2.189,1.777,3.231
		c0.383,0.617,0.778,1.224,1.197,1.814c0.797,1.121,1.665,2.184,2.585,3.202c1.078,1.191,2.216,2.325,3.446,3.359
		c0.296,0.248,0.605,0.477,0.907,0.715c3.309,2.599,7.077,4.638,11.189,5.917c3.292,1.024,6.792,1.575,10.42,1.575
		c3.629,0,7.128-0.552,10.42-1.575c4.112-1.279,7.88-3.319,11.189-5.917c0.302-0.238,0.612-0.467,0.907-0.715
		c1.23-1.034,2.368-2.168,3.446-3.359c0.92-1.017,1.788-2.081,2.585-3.202c0.419-0.591,0.814-1.197,1.197-1.814
		c0.649-1.042,1.239-2.119,1.777-3.231c0.486-1.002,0.922-2.029,1.312-3.082c1.403-3.789,2.207-7.868,2.207-12.144v0v0
		c0-1.09-0.062-2.165-0.163-3.228c-0.05-0.544-0.135-1.077-0.21-1.614c-0.067-0.463-0.127-0.927-0.211-1.383
		c-0.129-0.717-0.287-1.423-0.458-2.124c-0.053-0.214-0.108-0.426-0.165-0.639c-0.216-0.819-0.456-1.627-0.729-2.421
		c-0.001-0.001-0.001-0.003-0.001-0.004c0,0-0.001,0-0.001,0c-4.738-13.74-17.75-23.626-33.1-23.626s-28.362,9.886-33.1,23.626
		c0,0-0.001,0-0.001,0c0,0.001,0,0.003-0.001,0.004c-0.274,0.794-0.513,1.602-0.729,2.421c-0.057,0.212-0.112,0.425-0.165,0.639
		c-0.172,0.701-0.33,1.407-0.458,2.124c-0.084,0.457-0.144,0.92-0.211,1.383c-0.075,0.537-0.16,1.069-0.21,1.614
		c-0.101,1.063-0.163,2.138-0.163,3.228v0v0C353.79,115.8,354.594,119.879,355.997,123.668z"/>
	<path d="M1141.388,811.882c-0.067-0.473-0.13-0.946-0.215-1.413c-0.129-0.711-0.285-1.409-0.455-2.104
		c-0.055-0.221-0.111-0.442-0.171-0.662c-0.215-0.812-0.453-1.614-0.725-2.402c-0.001-0.004-0.002-0.008-0.003-0.011
		c0,0,0,0,0,0.001c-4.738-13.741-17.75-23.628-33.101-23.628c-15.35,0-28.362,9.887-33.1,23.628c0,0,0-0.001,0-0.001
		c-0.001,0.003-0.002,0.007-0.003,0.011c-0.272,0.788-0.51,1.59-0.726,2.402c-0.059,0.22-0.115,0.44-0.17,0.662
		c-0.17,0.695-0.327,1.394-0.455,2.104c-0.086,0.466-0.148,0.94-0.216,1.413c-0.073,0.528-0.157,1.051-0.206,1.586
		c-0.101,1.065-0.163,2.142-0.163,3.234c0,10.251,4.43,19.446,11.447,25.853c1.262,1.153,2.581,2.242,4.001,3.202
		c0.933,0.63,1.897,1.215,2.89,1.755c4.965,2.697,10.654,4.229,16.701,4.229l0,0l0,0c8.162,0,15.652-2.814,21.608-7.493
		c0.303-0.238,0.612-0.467,0.907-0.715c7.651-6.428,12.525-16.057,12.525-26.832c0-1.092-0.063-2.169-0.164-3.234
		C1141.546,812.933,1141.461,812.41,1141.388,811.882z"/>
	<path d="M782.269,103.186c-0.17,0.695-0.327,1.394-0.455,2.104c-0.086,0.466-0.148,0.94-0.216,1.413
		c-0.073,0.528-0.157,1.051-0.206,1.586c-0.101,1.065-0.163,2.142-0.163,3.234c0,10.252,4.43,19.446,11.447,25.853
		c1.262,1.152,2.581,2.242,4.001,3.202c0.933,0.63,1.897,1.215,2.889,1.755c4.965,2.697,10.654,4.229,16.701,4.229l0,0l0,0
		c19.352,0,35.04-15.688,35.04-35.039c0-1.092-0.063-2.169-0.164-3.234c-0.049-0.535-0.134-1.058-0.207-1.586
		c-0.067-0.472-0.13-0.946-0.215-1.413c-0.128-0.711-0.285-1.409-0.455-2.104c-0.055-0.221-0.111-0.442-0.171-0.661
		c-0.215-0.812-0.453-1.614-0.724-2.402c-0.001-0.004-0.003-0.008-0.004-0.012c0,0-0.001,0.001-0.001,0.001
		c-4.738-13.741-17.75-23.627-33.1-23.627c-15.35,0-28.362,9.886-33.1,23.627c0,0,0-0.001,0-0.001
		c-0.001,0.003-0.002,0.007-0.003,0.011c-0.272,0.789-0.51,1.59-0.726,2.403C782.38,102.745,782.324,102.965,782.269,103.186z"/>
	<path d="M65.268,375.637c-0.17,0.695-0.327,1.394-0.455,2.104c-0.086,0.466-0.148,0.94-0.216,1.413
		c-0.073,0.528-0.157,1.051-0.206,1.586c-0.101,1.065-0.163,2.142-0.163,3.234c0,10.252,4.43,19.446,11.447,25.853
		c1.262,1.152,2.581,2.242,4.001,3.202c0.933,0.63,1.897,1.215,2.889,1.755c4.965,2.697,10.654,4.229,16.701,4.229l0,0l0,0
		c8.162,0,15.652-2.814,21.608-7.493c0.303-0.238,0.612-0.467,0.907-0.715c7.651-6.428,12.525-16.056,12.525-26.832
		c0-1.092-0.063-2.169-0.164-3.234c-0.049-0.535-0.134-1.058-0.207-1.586c-0.067-0.472-0.13-0.946-0.215-1.413
		c-0.129-0.711-0.285-1.409-0.455-2.104c-0.055-0.221-0.111-0.442-0.171-0.661c-0.215-0.813-0.453-1.614-0.725-2.403
		c-0.001-0.003-0.002-0.007-0.003-0.011c0,0,0,0.001,0,0.001c-4.738-13.741-17.75-23.627-33.101-23.627
		c-15.35,0-28.362,9.886-33.1,23.627c0,0,0-0.001,0-0.001c-0.001,0.003-0.002,0.007-0.003,0.011c-0.272,0.789-0.51,1.59-0.726,2.403
		C65.379,375.195,65.323,375.416,65.268,375.637z"/>
	<path d="M1072.72,375.637c-0.17,0.695-0.327,1.394-0.455,2.104c-0.086,0.466-0.148,0.94-0.216,1.413
		c-0.073,0.528-0.157,1.051-0.206,1.586c-0.101,1.065-0.163,2.142-0.163,3.234c0,10.252,4.43,19.446,11.447,25.853
		c1.262,1.152,2.581,2.242,4.001,3.202c0.933,0.63,1.897,1.215,2.89,1.755c4.965,2.697,10.654,4.229,16.701,4.229l0,0l0,0
		c8.162,0,15.652-2.814,21.608-7.493c0.303-0.238,0.612-0.467,0.907-0.715c7.651-6.428,12.525-16.056,12.525-26.832
		c0-1.092-0.063-2.169-0.164-3.234c-0.049-0.535-0.134-1.058-0.207-1.586c-0.067-0.472-0.13-0.946-0.215-1.413
		c-0.129-0.711-0.285-1.409-0.455-2.104c-0.055-0.221-0.111-0.442-0.171-0.661c-0.215-0.813-0.453-1.614-0.725-2.403
		c-0.001-0.003-0.002-0.007-0.003-0.011c0,0,0,0.001,0,0.001c-4.738-13.741-17.75-23.627-33.101-23.627
		c-15.35,0-28.362,9.886-33.1,23.627c0,0,0-0.001,0-0.001c-0.001,0.003-0.002,0.007-0.003,0.011c-0.272,0.789-0.51,1.59-0.726,2.403
		C1072.831,375.195,1072.775,375.416,1072.72,375.637z"/>
	<path d="M423.705,1085.245c-0.05-0.544-0.135-1.076-0.21-1.613c-0.067-0.463-0.127-0.927-0.211-1.383
		c-0.129-0.718-0.287-1.423-0.458-2.124c-0.053-0.214-0.108-0.427-0.165-0.639c-0.216-0.819-0.456-1.627-0.729-2.421
		c-0.001-0.001-0.001-0.002-0.001-0.004l-0.001,0c-4.738-13.741-17.75-23.626-33.1-23.626s-28.362,9.886-33.1,23.626l-0.001,0
		c0,0.001,0,0.003-0.001,0.004c-0.274,0.794-0.513,1.602-0.729,2.421c-0.057,0.212-0.112,0.425-0.165,0.639
		c-0.172,0.701-0.33,1.406-0.458,2.124c-0.084,0.456-0.144,0.92-0.211,1.383c-0.075,0.537-0.16,1.069-0.21,1.613
		c-0.101,1.063-0.163,2.138-0.163,3.228l0,0v0c0,4.514,0.884,8.814,2.438,12.776c0.127,0.324,0.234,0.656,0.37,0.975
		c1.73,4.051,4.206,7.703,7.249,10.799c0.072,0.073,0.135,0.155,0.206,0.227c0.993,0.993,2.064,1.902,3.168,2.77
		c1.197,0.94,2.458,1.795,3.773,2.575c0.883,0.524,1.79,1.007,2.721,1.453c1.515,0.727,3.069,1.383,4.695,1.889
		c3.292,1.024,6.792,1.575,10.42,1.575c3.629,0,7.128-0.552,10.42-1.575c1.626-0.506,3.18-1.162,4.695-1.889
		c0.931-0.446,1.838-0.929,2.721-1.453c1.315-0.78,2.576-1.635,3.773-2.575c1.105-0.868,2.176-1.777,3.168-2.77
		c0.072-0.072,0.134-0.154,0.206-0.227c3.043-3.096,5.519-6.748,7.249-10.799c0.136-0.319,0.243-0.651,0.37-0.975
		c1.554-3.962,2.438-8.262,2.438-12.776v0l0,0C423.868,1087.383,423.807,1086.308,423.705,1085.245z"/>
</g>
</svg>
