<svg id="Capa_1" enable-background="new 0 0 512 512" height="512" viewBox="0 0 512 512" width="512" xmlns="http://www.w3.org/2000/svg"><g><path d="m467 46h-422c-24.814 0-45 20.186-45 45v150c0 24.814 20.186 45 45 45h422c24.814 0 45-20.186 45-45v-150c0-24.814-20.186-45-45-45zm-90 90c8.284 0 15 6.716 15 15s-6.716 15-15 15-15-6.716-15-15 6.716-15 15-15zm60 90h-362c-8.291 0-15-6.709-15-15s6.709-15 15-15h362c8.291 0 15 6.709 15 15s-6.709 15-15 15zm0-60c-8.284 0-15-6.716-15-15s6.716-15 15-15 15 6.716 15 15-6.716 15-15 15z"/><path d="m136 316c-8.291 0-15 6.709-15 15v22.925c0 35.654-19.819 67.705-51.709 83.657-7.412 3.706-10.415 12.715-6.709 20.127 3.688 7.354 12.64 10.426 20.127 6.709 42.129-21.064 68.291-63.398 68.291-110.493v-22.925c0-8.291-6.709-15-15-15z"/><path d="m376 316c-8.291 0-15 6.709-15 15v22.925c0 47.095 26.162 89.429 68.291 110.493 7.48 3.713 16.436.652 20.127-6.709 3.706-7.412.703-16.421-6.709-20.127-31.89-15.952-51.709-48.003-51.709-83.657v-22.925c0-8.291-6.709-15-15-15z"/><path d="m271 451v-120c0-8.291-6.709-15-15-15s-15 6.709-15 15v120c0 8.291 6.709 15 15 15s15-6.709 15-15z"/><path d="m331 451v-120c0-8.291-6.709-15-15-15s-15 6.709-15 15v120c0 8.291 6.709 15 15 15s15-6.709 15-15z"/><path d="m211 451v-120c0-8.291-6.709-15-15-15s-15 6.709-15 15v120c0 8.291 6.709 15 15 15s15-6.709 15-15z"/></g></svg>